<?xml version="1.0" encoding="UTF-8"?>
<svg width="361px" height="34px" viewBox="0 0 361 34" version="1.1" xmlns="http://www.w3.org/2000/svg" xmlns:xlink="http://www.w3.org/1999/xlink">
    <!-- Generator: Sketch 47.1 (45422) - http://www.bohemiancoding.com/sketch -->
    <title>Button</title>
    <desc>Created with Sketch.</desc>
    <defs></defs>
    <g id="Minimal-Site" stroke="none" stroke-width="1" fill="none" fill-rule="evenodd">
        <g id="Desktop-HD---v1.0" transform="translate(-550.000000, -455.000000)" fill="#DEBC3E">
            <g id="Group" transform="translate(550.000000, 455.000000)">
                <path d="M67,1.05399448 L67,1 L258,1 L258,1.03318389 C269.989457,1.05204434 281.858386,1.1353406 293.470622,1.1353406 C293.470622,2.45626744 289.819622,4.43874937 293.470622,5.10030446 C308.069622,7.08133083 308.069622,9.72609563 308.069622,12.3694049 C308.069622,13.6910595 297.121622,12.3694049 300.767622,13.6910595 C289.819622,13.6910595 271.557622,14.3526146 282.518622,15.6728136 C286.169622,16.995196 300.767622,15.6728136 304.414622,17.6552956 C308.069622,19.6377775 300.767622,21.6209872 304.414622,23.6020136 C308.069622,23.6020136 315.370622,23.6020136 319.021622,23.6020136 C322.665622,24.9258515 315.370622,27.5691608 319.021622,27.5691608 C329.969622,28.8908154 344.572622,28.2292603 359.163622,28.2292603 C359.163622,29.5509149 363.302,32.3346864 356,32.9962415 C323.671082,33.3836441 290.800501,32.837017 258,32.8546504 L258,33 L104.71806,33 C104.29227,33.0194955 103.857246,33.0294184 103.412912,33.0294184 C83,33.0294184 63.0577097,33.0294184 43,33.0294184 C43,31.7084916 38.5932903,29.7260096 34.9422903,29.0644546 C20.3432903,27.0834282 31,26.6433092 31,24 C31,22.6783454 39.2912903,21.7953541 35.6452903,20.4736995 C46.5932903,20.4736995 56.8552903,19.8121444 45.8942903,18.4919454 C42.2432903,17.169563 35.6452903,18.4919454 31.9982903,16.5094634 C28.3432903,14.5269815 35.6452903,12.5437718 31.9982903,10.5627454 C28.3432903,10.5627454 21.0422903,10.5627454 17.3912903,10.5627454 C13.7472903,9.23890747 21.0422903,6.59559823 17.3912903,6.59559823 C6.44329033,5.27394361 15.8402903,5.93549871 1.24929033,5.93549871 C1.24929033,4.61384409 -2.88908803,1.83007265 4.41291197,1.16851756 C30.7559931,0.85284415 47.2338079,0.94896683 67,1.05399448 Z" id="Button"></path>
            </g>
        </g>
    </g>
</svg>
