<?xml version="1.0" encoding="UTF-8"?>
<svg width="24px" height="24px" viewBox="0 0 24 24" version="1.1" xmlns="http://www.w3.org/2000/svg" xmlns:xlink="http://www.w3.org/1999/xlink">
    <!-- Generator: Sketch 49.1 (51147) - http://www.bohemiancoding.com/sketch -->
    <title>Fill 1</title>
    <desc>Created with Sketch.</desc>
    <defs></defs>
    <g id="Website" stroke="none" stroke-width="1" fill="none" fill-rule="evenodd">
        <g id="Desktop-QHD---v2.0" transform="translate(-1864.000000, -1860.000000)" fill="#11B8DF">
            <g id="Content" transform="translate(480.000000, 0.000000)">
                <g id="Venue" transform="translate(1.000000, 1320.000000)">
                    <path d="M1405.49925,540 C1405.24425,540 1405.00275,540.06375 1404.7935,540.17775 L1383.79275,551.42775 C1383.321,551.6805 1383,552.17625 1383,552.75 C1383,553.57725 1383.67125,554.24925 1384.50075,554.24925 L1392.74925,554.24925 L1392.74925,562.49925 C1392.74925,563.328 1393.42125,564 1394.24925,564 C1394.8215,564 1395.32025,563.679 1395.573,563.208 L1406.82225,542.2065 C1406.93625,541.99725 1407,541.75575 1407,541.50075 C1407,540.672 1406.328,540 1405.49925,540 M1403.66625,543.3315 L1394.99925,559.512 L1394.99925,553.5 C1394.99925,552.67125 1394.32725,551.99925 1393.5,551.99925 L1387.488,551.99925 L1403.66625,543.3315" id="Fill-1"></path>
                </g>
            </g>
        </g>
    </g>
</svg>