<?xml version="1.0" encoding="UTF-8"?>
<svg width="59px" height="61px" viewBox="0 0 59 61" version="1.1" xmlns="http://www.w3.org/2000/svg" xmlns:xlink="http://www.w3.org/1999/xlink">
    <!-- Generator: Sketch 49 (51002) - http://www.bohemiancoding.com/sketch -->
    <title>Fill 1</title>
    <desc>Created with Sketch.</desc>
    <defs></defs>
    <g id="Website" stroke="none" stroke-width="1" fill="none" fill-rule="evenodd">
        <g id="Desktop-HD---v2.0" transform="translate(-1171.000000, -446.000000)" fill="#69C0D1">
            <g id="Content" transform="translate(435.000000, 0.000000)">
                <g id="Speakers/Sponsors" transform="translate(45.000000, 0.000000)">
                    <g id="Sponsors-button" transform="translate(540.000000, 446.000000)">
                        <path d="M154.805853,50.9960349 C155.377773,49.0418282 157.135966,47.6190285 159.220706,47.6190285 C161.762982,47.6190285 163.829273,49.7541804 163.829273,52.3788362 C163.829273,54.5292255 162.452976,56.346295 160.558261,56.9348426 L153.947973,59.0052352 C153.864953,59.0299961 153.774553,59.0471382 153.685997,59.0471382 C153.169424,59.0471382 152.761701,58.6185841 152.761701,58.0928911 C152.761701,57.9995615 152.770925,57.9081366 152.800444,57.8148071 L154.805853,50.9960349 Z M190.57852,24.7647138 C188.034399,24.7647138 185.968108,22.6276572 185.968108,20.0049061 C185.968108,17.3726315 188.034399,15.2393843 190.57852,15.2393843 C193.126331,15.2393843 195.194467,17.3726315 195.194467,20.0049061 C195.194467,22.6276572 193.126331,24.7647138 190.57852,24.7647138 Z M182.579021,10.6681404 C173.767765,16.5917106 167.930492,29.3607186 165.845752,39.9221966 L171.286371,45.5372079 C181.514512,43.3791998 193.884586,37.3603954 199.620389,28.2617153 C203.596155,21.9591128 204.297218,14.062289 204.404223,5.72929234 C196.330928,5.83405001 188.68565,6.56354435 182.579021,10.6681404 Z M157.073239,27.6903099 C158.927366,28.2845716 160.833151,29.164536 162.742626,30.2502064 C163.633714,27.6598349 164.709292,25.029465 165.98043,22.4619497 C162.607948,23.294297 159.510356,25.0980336 157.073239,27.6903099 Z M183.139872,54.5939848 C185.643405,52.077896 187.390528,48.8742159 188.198596,45.3924518 C185.709822,46.7104938 183.162011,47.8209251 180.652943,48.7351739 C181.710072,50.7084275 182.556883,52.6740624 183.139872,54.5939848 Z M204.258475,31.3796846 C201.485586,35.7756975 197.603911,39.4231692 193.261009,42.3735262 C192.847751,49.5046666 189.346125,56.1424937 183.6546,60.3289912 C183.178615,60.6832626 182.61223,60.862303 182.047689,60.862303 C181.687933,60.862303 181.330022,60.7937343 180.988715,60.6489783 C180.108696,60.2661366 179.475895,59.4509315 179.319078,58.4795421 C178.89844,55.9120268 177.784119,53.0721415 176.138465,50.1979719 C174.299097,50.7179509 172.507697,51.140791 170.832525,51.4341125 C170.675708,51.4645874 170.518891,51.4817296 170.362074,51.4817296 C169.633338,51.4817296 168.92674,51.1884081 168.406477,50.6436682 L160.894033,42.8935052 C160.261231,42.2401982 159.969737,41.2973792 160.126553,40.3850351 C160.418048,38.6555811 160.827616,36.8099414 161.32574,34.9128752 C158.547316,33.2119915 155.791031,32.0634665 153.304102,31.6272937 C152.368737,31.4653954 151.573583,30.8120885 151.208293,29.9054585 C150.844847,28.9969237 150.962921,27.9550611 151.516391,27.151284 C155.573333,21.2753309 162.002819,17.6678576 168.911981,17.2278754 C171.762356,12.7518658 175.29719,8.74250394 179.558915,5.87976245 C187.63221,0.449505649 197.233085,0 207.182646,0 C208.712071,0 209.950001,1.27613892 209.950001,2.85702743 C209.950001,12.7213908 209.512759,23.0447833 204.258475,31.3796846 Z" id="Fill-1"></path>
                    </g>
                </g>
            </g>
        </g>
    </g>
</svg>