<?xml version="1.0" encoding="UTF-8"?>
<svg width="62px" height="55px" viewBox="0 0 62 55" version="1.1" xmlns="http://www.w3.org/2000/svg" xmlns:xlink="http://www.w3.org/1999/xlink">
    <!-- Generator: Sketch 49 (51002) - http://www.bohemiancoding.com/sketch -->
    <title>Fill 1</title>
    <desc>Created with Sketch.</desc>
    <defs></defs>
    <g id="Website" stroke="none" stroke-width="1" fill="none" fill-rule="evenodd">
        <g id="Desktop-HD---v2.0" transform="translate(-689.000000, -444.000000)" fill="#69C0D1">
            <g id="Content" transform="translate(435.000000, 0.000000)">
                <g id="Speakers/Sponsors" transform="translate(45.000000, 0.000000)">
                    <g id="Speakers-button" transform="translate(209.000000, 444.000000)">
                        <path d="M51.045375,44.5101875 C44.61675,38.8565625 36.0200625,35.3961875 27.1191875,34.948625 L27.1191875,19.2723125 C36.0200625,18.82475 44.61675,15.3663125 51.045375,9.7126875 C52.7465,21.2834375 52.7465,32.9375 51.045375,44.5101875 Z M13.558625,34.8614375 C9.288375,34.8614375 5.8125,31.3855625 5.8125,27.1075625 C5.8125,22.835375 9.288375,19.3614375 13.558625,19.3614375 L21.3066875,19.3614375 L21.3066875,34.8614375 L13.558625,34.8614375 Z M62,27.1075625 C62,24.5306875 60.3046875,22.3723125 57.981625,21.61475 C57.694875,15.01175 56.904375,8.435875 55.583,1.933625 C55.3873125,0.9978125 54.6704375,0.2635 53.734625,0.058125 C53.5583125,0.0174375 53.382,0 53.20375,0 C52.452,0 51.7293125,0.352625 51.2681875,0.9706875 C45.22125,9.0771875 34.8730625,13.5489375 25.183625,13.5489375 L13.558625,13.5489375 C6.0701875,13.5489375 0,19.619125 0,27.1075625 C0,34.6018125 6.0701875,40.6739375 13.558625,40.6739375 C13.558625,45.7095 15.6065625,50.440875 19.2258125,53.8644375 C19.5009375,54.1279375 19.8729375,54.25775 20.2488125,54.2345 C20.6246875,54.21125 20.9773125,54.029125 21.2136875,53.734625 L24.3911875,49.79375 C24.8251875,49.2570625 24.7903125,48.480125 24.3020625,47.991875 C22.38975,46.0446875 21.3066875,43.43875 21.3066875,40.6739375 L25.183625,40.6739375 C34.8730625,40.6739375 45.22125,45.1456875 51.2681875,53.2521875 C51.7293125,53.87025 52.452,54.222875 53.20375,54.222875 C53.382,54.222875 53.5583125,54.2054375 53.734625,54.1628125 C54.6704375,53.9574375 55.3873125,53.223125 55.583,52.2873125 C56.904375,45.787 57.694875,39.203375 57.981625,32.608125 C60.3046875,31.8505625 62,29.69025 62,27.1075625 Z" id="Fill-1"></path>
                    </g>
                </g>
            </g>
        </g>
    </g>
</svg>